PathFileType	4	(X/Y/Z)	C:/Users/opensim2020/Desktop/walking_exp_matlab/subject06_walking13_straight_02.trc																																																																																																																																																				
DataRate	CameraRate	NumFrames	NumMarkers	Units	OrigDataRate	OrigDataStartFrame	OrigNumFrames																																																																																																																																																
100	100	6	50	mm	100	1561	199																																																																																																																																																
Frame#	Time	LFHD			RFHD			LBHD			RBHD			C7			T10			CLAV			STRN			RBAK			LSHO			LUPA			LELB			LFRM			LWRA			LWRB			LFIN			RSHO			RUPA			RELB			RFRM			RWRA			RWRB			RFIN			LASI			RASI			LPSI			RPSI			LTHI			LKNE			LTIB			LANK			LHEE			LTOE			RTHI			RKNE			RTIB			RANK			RHEE			RTOE			*39			*40			*41			*42			*43			*44			*45			*46			*47			*48			*49		
		X1	Y1	Z1	X2	Y2	Z2	X3	Y3	Z3	X4	Y4	Z4	X5	Y5	Z5	X6	Y6	Z6	X7	Y7	Z7	X8	Y8	Z8	X9	Y9	Z9	X10	Y10	Z10	X11	Y11	Z11	X12	Y12	Z12	X13	Y13	Z13	X14	Y14	Z14	X15	Y15	Z15	X16	Y16	Z16	X17	Y17	Z17	X18	Y18	Z18	X19	Y19	Z19	X20	Y20	Z20	X21	Y21	Z21	X22	Y22	Z22	X23	Y23	Z23	X24	Y24	Z24	X25	Y25	Z25	X26	Y26	Z26	X27	Y27	Z27	X28	Y28	Z28	X29	Y29	Z29	X30	Y30	Z30	X31	Y31	Z31	X32	Y32	Z32	X33	Y33	Z33	X34	Y34	Z34	X35	Y35	Z35	X36	Y36	Z36	X37	Y37	Z37	X38	Y38	Z38	X39	Y39	Z39	X40	Y40	Z40	X41	Y41	Z41	X42	Y42	Z42	X43	Y43	Z43	X44	Y44	Z44	X45	Y45	Z45	X46	Y46	Z46	X47	Y47	Z47	X48	Y48	Z48	X49	Y49	Z49	X50	Y50	Z50
																																																																																																																																																							
25	0.24	-765.4129	1639.17737	-1509.62634	-765.70282	1628.35901	-1378.30664	-903.17505	1595.76477	-1509.57947	-901.33112	1590.56628	-1380.93945	-913.73926	1433.18176	-1447.6499	-950.78613	1102.86108	-1433.75769	-803.70032	1353.76013	-1450.44482	-766.06946	1177.74512	-1451.96423	-985.97546	1264.34668	-1359.62952	-872.47369	1383.08704	-1610.24182	-932.6936	1189.54382	-1670.1355	-972.93225	1084.36169	-1673.0824	-999.72076	936.04987	-1693.6908	-971.63995	806.55084	-1657.33362	-1035.54993	822.40253	-1685.80676	-1024.08032	731.17297	-1686.64124	-843.12482	1389.51807	-1289.16638	-842.36371	1192.51636	-1194.33276	-798.49194	1080.15051	-1178.21277	-719.53241	992.21979	-1170.45337	-592.79199	924.5899	-1220.12048	-630.04877	889.11108	-1177.86804	-552.9538	858.85687	-1181.41882	-767.28015	945.54858	-1538.78296	-780.03589	945.12018	-1319.25488	-928.7276	968.00684	-1520.9873	-929.0578	972.47754	-1351.95911	-776.22217	636.84741	-1614.41675	-722.4342	486.65933	-1584.64514	-682.12195	233.8297	-1582.30774	-622.18774	69.27458	-1546.40137	-653.7525	46.46768	-1498.26819	-472.36337	74.55891	-1545.39075	-881.33319	614.55408	-1284.28345	-907.35315	490.20123	-1308.49084	-1058.65649	262.83853	-1321.18359	-1149.80896	100.88213	-1372.50134	-1196.49243	90.60478	-1416.95691	-1011.71759	35.72661	-1382.21008	-861.98572	1685.81067	-1450.09497	NaN	NaN	NaN	NaN	NaN	NaN	NaN	NaN	NaN	NaN	NaN	NaN	NaN	NaN	NaN	NaN	NaN	NaN	NaN	NaN	NaN	NaN	NaN	NaN	NaN	NaN	NaN	NaN	NaN	NaN
26	0.25	-754.92621	1638.83777	-1510.81042	-755.50854	1628.08459	-1379.47461	-892.66357	1595.33533	-1510.9353	-891.08136	1590.22656	-1382.39148	-903.37146	1432.69226	-1449.10657	-939.39648	1102.26721	-1435.35193	-793.01227	1353.53247	-1451.67358	-755.18579	1177.54517	-1453.02332	-975.38318	1263.64404	-1361.34375	-861.42365	1382.63354	-1611.57727	-920.81812	1188.83301	-1671.84375	-960.7655	1083.60315	-1675.01074	-987.42401	935.53186	-1696.03967	-959.35278	805.86639	-1659.30627	-1023.07971	821.68176	-1688.14709	-1011.57141	730.42804	-1688.98694	-832.99792	1389.09399	-1290.50208	-832.37201	1191.98669	-1195.95068	-788.86127	1079.32043	-1180.01917	-710.87988	990.47699	-1171.76587	-584.66895	921.35638	-1220.77014	-622.82831	886.36554	-1178.42041	-545.9082	855.16333	-1181.8573	-755.64526	945.32324	-1539.61914	-768.50153	944.92377	-1320.43201	-916.86389	967.50012	-1522.36426	-917.55585	972.02661	-1353.3457	-764.09845	636.90222	-1613.84326	-709.74725	486.82004	-1584.67249	-673.88983	232.93231	-1581.60327	-618.505	67.58344	-1545.27698	-651.52905	47.0083	-1496.9812	-468.66763	65.30048	-1542.81836	-869.90045	614.10535	-1284.80798	-895.30914	489.52127	-1308.68713	-1051.64624	265.20715	-1320.71631	-1146.93738	105.56847	-1371.38086	-1193.83936	96.87046	-1415.68689	-1011.26135	35.9016	-1382.01221	-851.67017	1685.4292	-1451.50208	NaN	NaN	NaN	NaN	NaN	NaN	NaN	NaN	NaN	NaN	NaN	NaN	NaN	NaN	NaN	NaN	NaN	NaN	NaN	NaN	NaN	NaN	NaN	NaN	NaN	NaN	NaN	NaN	NaN	NaN
27	0.26	-744.39105	1638.99365	-1512.01538	-745.2063	1628.24695	-1380.64673	-882.12231	1595.22156	-1512.36816	-880.72186	1590.09314	-1383.78076	-892.98297	1432.55029	-1450.62305	-927.77661	1101.86511	-1436.96875	-782.23462	1353.65417	-1452.927	-745.31641	1177.55481	-1454.03748	-964.82666	1263.16675	-1363.27014	-850.20404	1382.47473	-1613.05554	-908.57831	1188.28845	-1673.63708	-948.14587	1082.94153	-1677.04492	-974.27557	934.89398	-1698.29077	-946.354	805.26111	-1661.19373	-1010.01398	821.22931	-1690.99536	-998.20239	729.77582	-1691.43665	-822.81122	1388.95154	-1291.75098	-822.49463	1191.55139	-1197.65771	-779.5802	1078.60986	-1181.81152	-702.6474	988.72333	-1173.16797	-577.11041	917.83405	-1221.42053	-615.97125	883.336	-1179.30212	-539.492	850.99396	-1182.27539	-743.33246	945.52277	-1541.24402	-756.44733	945.08459	-1321.44385	-904.84167	967.52155	-1523.74573	-905.95581	971.85101	-1354.68713	-751.52087	637.44965	-1613.55371	-697.71417	487.10699	-1585.15332	-665.42676	232.98622	-1580.60193	-615.26129	67.41589	-1545.28333	-649.24469	48.76196	-1496.92358	-465.00253	55.1245	-1540.76367	-857.62415	613.62848	-1285.50024	-882.54474	488.95334	-1308.90527	-1044.12927	268.14572	-1319.97974	-1143.4491	110.85476	-1370.18311	-1190.45154	103.94559	-1414.328	-1011.51202	35.76266	-1381.62646	-841.3233	1685.38416	-1452.85632	NaN	NaN	NaN	NaN	NaN	NaN	NaN	NaN	NaN	NaN	NaN	NaN	NaN	NaN	NaN	NaN	NaN	NaN	NaN	NaN	NaN	NaN	NaN	NaN	NaN	NaN	NaN	NaN	NaN	NaN
28	0.27	-733.84393	1639.8302	-1513.22778	-734.81989	1629.02942	-1381.85413	-871.47729	1595.63354	-1513.87024	-870.3194	1590.5083	-1385.26111	-882.56329	1433.00195	-1452.35474	-916.25378	1101.92651	-1438.30334	-771.58026	1354.354	-1454.18188	-734.1239	1178.29102	-1455.21362	-954.17761	1263.1001	-1365.46191	-839.00079	1382.70105	-1614.68201	-896.00134	1187.98462	-1675.55054	-935.0993	1082.43994	-1679.23157	-960.49707	934.30133	-1700.50696	-932.57288	804.81659	-1663.08667	-995.94342	820.60834	-1693.54077	-983.89642	729.21393	-1693.93591	-812.62756	1389.18835	-1292.92053	-813.0257	1191.27124	-1199.24219	-770.54358	1078.03369	-1183.55774	-694.83069	986.95557	-1174.599	-570.20099	913.99194	-1221.9917	-609.70789	880.16663	-1180.20422	-533.81012	846.58203	-1182.76367	-731.53339	946.16608	-1542.16162	-744.64044	945.43671	-1322.62317	-892.64294	968.22668	-1524.84656	-894.16571	972.05157	-1355.81274	-738.90564	638.68292	-1613.8811	-686.1875	488.00018	-1586.03406	-656.57349	234.05687	-1581.55286	-610.96594	67.47498	-1545.78137	-646.65729	50.14029	-1498.10291	-461.68225	49.56323	-1538.63123	-844.73053	613.17474	-1286.16785	-868.63495	488.2381	-1309.34351	-1035.5	271.37885	-1319.64001	-1139.06274	117.01424	-1369.08386	-1186.14539	112.25003	-1413.2301	-1011.1239	35.7422	-1381.68079	-831.03961	1685.93005	-1454.23633	NaN	NaN	NaN	NaN	NaN	NaN	NaN	NaN	NaN	NaN	NaN	NaN	NaN	NaN	NaN	NaN	NaN	NaN	NaN	NaN	NaN	NaN	NaN	NaN	NaN	NaN	NaN	NaN	NaN	NaN
29	0.28	-723.18591	1640.94373	-1514.40039	-724.53156	1630.1333	-1383.02844	-860.73578	1596.62805	-1515.29919	-859.8974	1591.46704	-1386.73877	-871.8158	1433.9895	-1453.98425	-904.86292	1102.55566	-1439.62549	-760.99872	1355.51807	-1455.44385	-723.18408	1179.43494	-1456.31555	-943.48462	1263.5564	-1367.59863	-827.71899	1383.24194	-1616.27856	-883.07935	1187.99695	-1677.47974	-921.45715	1082.17419	-1681.55725	-946.01025	933.91193	-1702.9574	-918.06415	804.54889	-1664.90308	-980.93707	819.91663	-1696.07642	-968.68451	728.86603	-1696.52014	-802.40356	1389.82935	-1294.02246	-803.51599	1191.35413	-1200.97119	-761.7511	1077.71667	-1185.29773	-687.53552	985.2561	-1176.06494	-563.88843	909.92108	-1222.58643	-604.38306	876.91663	-1181.11206	-529.27081	841.91962	-1183.13538	-719.16937	947.59827	-1543.68762	-733.04321	946.20142	-1323.90747	-881.32739	969.94611	-1525.80566	-882.31561	972.54779	-1356.74304	-726.4856	640.68823	-1614.77283	-674.74725	489.37167	-1587.29895	-647.90326	235.30821	-1583.10315	-606.82471	67.78194	-1545.39539	-644.03033	51.63898	-1498.427	-458.92838	48.4422	-1538.10706	-831.10626	613.03571	-1286.63025	-853.41443	487.59235	-1309.59949	-1025.28442	275.10187	-1319.86023	-1133.44849	123.83635	-1368.40283	-1180.28894	121.37412	-1412.58777	-1010.61823	35.76968	-1382.21667	-820.59778	1686.94214	-1455.60803	NaN	NaN	NaN	NaN	NaN	NaN	NaN	NaN	NaN	NaN	NaN	NaN	NaN	NaN	NaN	NaN	NaN	NaN	NaN	NaN	NaN	NaN	NaN	NaN	NaN	NaN	NaN	NaN	NaN	NaN
30	0.29	-712.42511	1642.21973	-1515.49829	-713.96204	1631.40491	-1384.2395	-849.99042	1598.01636	-1516.80371	-849.43689	1592.83008	-1388.20178	-861.03973	1435.39221	-1455.57227	-893.6604	1103.68384	-1440.93994	-750.26184	1356.90186	-1456.65222	-712.03284	1180.93762	-1457.50806	-932.78235	1264.48596	-1369.56433	-816.30084	1384.23999	-1617.7959	-869.84814	1188.41284	-1679.43994	-907.2392	1082.25317	-1683.90454	-930.51892	933.53027	-1705.14319	-902.7569	804.70947	-1666.71863	-965.07355	819.70142	-1698.79126	-952.26923	728.49072	-1698.86121	-792.00641	1390.90771	-1295.14514	-794.34814	1191.85608	-1203.00562	-753.13367	1077.81165	-1187.15173	-680.69104	983.72247	-1177.63477	-558.35706	905.70966	-1223.2467	-599.83801	873.66187	-1182.03442	-525.63831	836.98535	-1183.46912	-707.48993	949.7196	-1544.66785	-721.06415	947.24786	-1325.04883	-869.8078	971.93842	-1526.55359	-870.3714	973.20166	-1357.67456	-714.11517	643.1261	-1615.59229	-663.21625	491.15161	-1588.19006	-639.61407	236.34215	-1584.09131	-604.74915	68.25658	-1545.09338	-642.3363	52.73518	-1498.26929	-457.61386	46.53166	-1539.04004	-816.49908	612.99921	-1286.93396	-837.00507	487.20111	-1309.52173	-1013.60028	279.01746	-1319.98474	-1126.5824	131.36237	-1368.15479	-1172.73669	131.23074	-1412.43262	-1009.68365	35.87759	-1382.69043	-809.883	1688.29321	-1457.01709	NaN	NaN	NaN	NaN	NaN	NaN	NaN	NaN	NaN	NaN	NaN	NaN	NaN	NaN	NaN	NaN	NaN	NaN	NaN	NaN	NaN	NaN	NaN	NaN	NaN	NaN	NaN	NaN	NaN	NaN
